<?xml version="1.0" encoding="utf-8"?>
<!-- Generator: Adobe Illustrator 16.0.0, SVG Export Plug-In . SVG Version: 6.00 Build 0)  -->
<!DOCTYPE svg PUBLIC "-//W3C//DTD SVG 1.1//EN" "http://www.w3.org/Graphics/SVG/1.1/DTD/svg11.dtd">
<svg version="1.1" xmlns="http://www.w3.org/2000/svg" xmlns:xlink="http://www.w3.org/1999/xlink" x="0px" y="0px" width="576px"
	 height="576px" viewBox="0 0 576 576" enable-background="new 0 0 576 576" xml:space="preserve">
<g id="Layer_1" display="none">
	<path display="inline" d="M312.75,282.674v-0.796c23.278-10.057,28.394-25.665,28.394-40.219c0-21.434-16.65-42.335-49.984-42.335
		c-30.173,0-53.171,18.523-53.171,45.78c0,14.812,8.211,29.634,27.271,38.629l0.267,0.792
		c-21.171,8.998-34.131,24.349-34.131,46.032c0,25.14,21.701,46.573,57.677,46.573c32.816,0,58.409-20.107,58.409-50.007
		C347.48,306.213,336.028,291.129,312.75,282.674z M259.968,243.509c0-14.816,10.586-27.515,29.9-27.515
		c20.91,0,29.108,14.287,29.108,28.044c0,15.613-11.382,26.199-26.192,31.221C272.934,269.97,259.968,260.716,259.968,243.509z
		 M289.595,360.2c-21.951,0-35.179-15.357-34.393-32.816c0-16.398,10.854-29.632,30.959-35.458
		c23.284,6.623,37.832,16.673,37.832,37.571C323.999,347.234,310.505,360.2,289.595,360.2z"/>
</g>
<g id="Layer_1_copy">
	<path d="M289.473,0C130.288,0,1.248,129.047,1.248,288.226c0,159.178,129.04,288.231,288.225,288.231
		c159.185,0,288.225-129.047,288.225-288.226S448.657,0,289.473,0z M289.473,405.929c-65.009,0-117.704-52.694-117.704-117.703
		c0-65.01,52.695-117.694,117.704-117.694s117.704,52.69,117.704,117.699C407.177,353.24,354.481,405.929,289.473,405.929z"/>
</g>
<g id="Layer_3">
	<g>
		<path fill="#1F3B70" d="M197.612,224.229c-9.375,0-13.212,6.638-8.524,14.76l91.977,159.292c4.687,8.122,12.361,8.122,17.04,0
			l91.965-159.292c4.687-8.123,0.851-14.76-8.525-14.76H197.612z"/>
	</g>
	<circle display="none" fill="#1F3B70" cx="288.5" cy="288.229" r="119"/>
	<rect x="190.794" y="266.868" fill="none" width="198.412" height="36.263"/>
	<text transform="matrix(1 0 0 1 225.5967 294.624)" fill="#FFFFFF" font-family="'LucidaSansStd-Bold'" font-size="36">SHAKE</text>
	<rect x="190.267" y="257.966" fill="none" width="198.412" height="72.526"/>
	<text transform="matrix(1 0 0 1 215.1123 280.1704)" display="none"><tspan x="0" y="0" display="inline" fill="#FFFFFF" font-family="'LucidaSansStd-Bold'" font-size="28.8">ASK ME A </tspan><tspan x="-6.437" y="34.56" display="inline" fill="#FFFFFF" font-family="'LucidaSansStd-Bold'" font-size="28.8">QUESTION</tspan></text>
</g>
</svg>
